<svg xmlns="http://www.w3.org/2000/svg" width="500" height="500" viewBox="-6.1 -1 499.9 197.2"><g fill="#472A2B"><path d="M271.6 119.3h-14.8V90h14.8c8.2 0 14.8 6.6 14.8 14.8 0 8.2-6.9 14.5-14.8 14.5m0-54.6h-40.8v79.9h40.8c22 0 39.8-17.7 39.8-40.1 0-22.1-17.8-39.8-39.8-39.8M401.4 104.1c-.3-22-18.1-39.4-39.8-39.4h-39.8v79.9h26V90.7h13.8c7.9 0 14.1 6.2 14.1 14.1v40.1h26l-.3-40.8zM493.5 104.1c-.3-22-18.1-39.4-39.8-39.4h-40.1v79.9h26V90.7h14.1c7.6 0 14.1 6.2 14.1 14.1v40.1h26l-.3-40.8z"/></g><path fill="#EF3E42" d="M125.4 64.7V4.6C115.2.9 104-1 92.5-1H-6.1v131.5h65.7V64.7h65.8z"/><path fill="#fff" d="M125.4 64.7H59.6v65.7h32.9c18.1 0 32.9-14.8 32.9-32.9V64.7z"/><path fill="#472A2B" d="M125.4 4.6v60.1h60.1c-10.2-27.9-32.2-50.3-60.1-60.1zM-6.1 196.2h65.7v-65.7H-6.1v65.7z"/><path fill="#00A4E4" d="M185.5 64.7h-60.1v32.9c0 18.1-14.8 32.9-32.9 32.9H59.6v65.7h32.9c54.6 0 98.6-44 98.6-98.6 0-11.5-2-22.7-5.6-32.9z"/></svg>